<mxfile host="Electron" modified="2023-06-20T09:46:06.781Z" agent="Mozilla/5.0 (Windows NT 10.0; Win64; x64) AppleWebKit/537.36 (KHTML, like Gecko) draw.io/21.2.8 Chrome/112.0.5615.165 Electron/24.2.0 Safari/537.36" etag="pRz7EzWA-RTKSlFGg4Lo" version="21.2.8" type="device">
  <diagram name="第 1 页" id="8qNJQoUK8iC_JNgfyQ7q">
    <mxGraphModel dx="2167" dy="2157" grid="1" gridSize="10" guides="1" tooltips="1" connect="1" arrows="1" fold="1" page="1" pageScale="1" pageWidth="827" pageHeight="1169" math="0" shadow="0">
      <root>
        <mxCell id="0" />
        <mxCell id="1" parent="0" />
        <mxCell id="vos_EPktBbN4nnMoWkFi-23" value="" style="rounded=1;whiteSpace=wrap;html=1;fillColor=#d0cee2;strokeColor=#56517e;" parent="1" vertex="1">
          <mxGeometry x="780" y="1320" width="400" height="1000" as="geometry" />
        </mxCell>
        <mxCell id="iMO2lGKUr8zH2Anv26AK-159" value="" style="rounded=1;whiteSpace=wrap;html=1;fillColor=none;strokeColor=#000000;" parent="1" vertex="1">
          <mxGeometry x="-450" y="1320" width="400" height="1000" as="geometry" />
        </mxCell>
        <mxCell id="iMO2lGKUr8zH2Anv26AK-155" value="" style="rounded=1;whiteSpace=wrap;html=1;fillColor=#d5e8d4;strokeColor=#82b366;" parent="1" vertex="1">
          <mxGeometry x="370" y="1320" width="400" height="1000" as="geometry" />
        </mxCell>
        <mxCell id="iMO2lGKUr8zH2Anv26AK-154" value="" style="rounded=1;whiteSpace=wrap;html=1;fillColor=#dae8fc;strokeColor=#6c8ebf;" parent="1" vertex="1">
          <mxGeometry x="-40" y="1320" width="400" height="1000" as="geometry" />
        </mxCell>
        <mxCell id="iMO2lGKUr8zH2Anv26AK-32" value="" style="edgeStyle=orthogonalEdgeStyle;rounded=0;orthogonalLoop=1;jettySize=auto;html=1;" parent="1" source="iMO2lGKUr8zH2Anv26AK-1" target="iMO2lGKUr8zH2Anv26AK-2" edge="1">
          <mxGeometry relative="1" as="geometry" />
        </mxCell>
        <mxCell id="iMO2lGKUr8zH2Anv26AK-75" style="edgeStyle=orthogonalEdgeStyle;curved=1;rounded=0;orthogonalLoop=1;jettySize=auto;html=1;exitX=0.5;exitY=1;exitDx=0;exitDy=0;entryX=0.5;entryY=1;entryDx=0;entryDy=0;dashed=1;" parent="1" source="iMO2lGKUr8zH2Anv26AK-1" target="iMO2lGKUr8zH2Anv26AK-30" edge="1">
          <mxGeometry relative="1" as="geometry">
            <Array as="points">
              <mxPoint x="120" />
              <mxPoint x="560" />
            </Array>
          </mxGeometry>
        </mxCell>
        <mxCell id="iMO2lGKUr8zH2Anv26AK-1" value="conv" style="rounded=1;whiteSpace=wrap;html=1;fillColor=#ffe6cc;strokeColor=#d79b00;" parent="1" vertex="1">
          <mxGeometry x="80" y="-80" width="80" height="40" as="geometry" />
        </mxCell>
        <mxCell id="iMO2lGKUr8zH2Anv26AK-33" value="" style="edgeStyle=orthogonalEdgeStyle;rounded=0;orthogonalLoop=1;jettySize=auto;html=1;" parent="1" source="iMO2lGKUr8zH2Anv26AK-2" target="iMO2lGKUr8zH2Anv26AK-3" edge="1">
          <mxGeometry relative="1" as="geometry" />
        </mxCell>
        <mxCell id="iMO2lGKUr8zH2Anv26AK-74" style="edgeStyle=orthogonalEdgeStyle;curved=1;rounded=0;orthogonalLoop=1;jettySize=auto;html=1;exitX=0.5;exitY=1;exitDx=0;exitDy=0;entryX=0.5;entryY=1;entryDx=0;entryDy=0;dashed=1;" parent="1" source="iMO2lGKUr8zH2Anv26AK-2" target="iMO2lGKUr8zH2Anv26AK-28" edge="1">
          <mxGeometry relative="1" as="geometry">
            <Array as="points">
              <mxPoint x="120" y="80" />
              <mxPoint x="560" y="80" />
            </Array>
          </mxGeometry>
        </mxCell>
        <mxCell id="iMO2lGKUr8zH2Anv26AK-2" value="Res" style="rounded=1;whiteSpace=wrap;html=1;fillColor=#dae8fc;strokeColor=#6c8ebf;" parent="1" vertex="1">
          <mxGeometry x="80" width="80" height="40" as="geometry" />
        </mxCell>
        <mxCell id="iMO2lGKUr8zH2Anv26AK-34" style="edgeStyle=orthogonalEdgeStyle;rounded=0;orthogonalLoop=1;jettySize=auto;html=1;exitX=0.5;exitY=1;exitDx=0;exitDy=0;entryX=0.5;entryY=0;entryDx=0;entryDy=0;" parent="1" source="iMO2lGKUr8zH2Anv26AK-3" target="iMO2lGKUr8zH2Anv26AK-4" edge="1">
          <mxGeometry relative="1" as="geometry" />
        </mxCell>
        <mxCell id="iMO2lGKUr8zH2Anv26AK-73" style="edgeStyle=orthogonalEdgeStyle;curved=1;rounded=0;orthogonalLoop=1;jettySize=auto;html=1;exitX=0.5;exitY=1;exitDx=0;exitDy=0;entryX=0.5;entryY=1;entryDx=0;entryDy=0;dashed=1;" parent="1" source="iMO2lGKUr8zH2Anv26AK-3" target="iMO2lGKUr8zH2Anv26AK-29" edge="1">
          <mxGeometry relative="1" as="geometry">
            <Array as="points">
              <mxPoint x="120" y="160" />
              <mxPoint x="560" y="160" />
            </Array>
          </mxGeometry>
        </mxCell>
        <mxCell id="iMO2lGKUr8zH2Anv26AK-3" value="Res" style="rounded=1;whiteSpace=wrap;html=1;fillColor=#dae8fc;strokeColor=#6c8ebf;" parent="1" vertex="1">
          <mxGeometry x="80" y="80" width="80" height="40" as="geometry" />
        </mxCell>
        <mxCell id="iMO2lGKUr8zH2Anv26AK-35" value="" style="edgeStyle=orthogonalEdgeStyle;rounded=0;orthogonalLoop=1;jettySize=auto;html=1;" parent="1" source="iMO2lGKUr8zH2Anv26AK-4" target="iMO2lGKUr8zH2Anv26AK-6" edge="1">
          <mxGeometry relative="1" as="geometry" />
        </mxCell>
        <mxCell id="iMO2lGKUr8zH2Anv26AK-72" style="edgeStyle=orthogonalEdgeStyle;curved=1;rounded=0;orthogonalLoop=1;jettySize=auto;html=1;exitX=0.5;exitY=1;exitDx=0;exitDy=0;entryX=0.5;entryY=1;entryDx=0;entryDy=0;dashed=1;" parent="1" source="iMO2lGKUr8zH2Anv26AK-4" target="iMO2lGKUr8zH2Anv26AK-26" edge="1">
          <mxGeometry relative="1" as="geometry">
            <Array as="points">
              <mxPoint x="120" y="320" />
              <mxPoint x="560" y="320" />
            </Array>
          </mxGeometry>
        </mxCell>
        <mxCell id="iMO2lGKUr8zH2Anv26AK-4" value="DS" style="rounded=1;whiteSpace=wrap;html=1;fillColor=#f8cecc;strokeColor=#b85450;" parent="1" vertex="1">
          <mxGeometry x="80" y="240" width="80" height="40" as="geometry" />
        </mxCell>
        <mxCell id="iMO2lGKUr8zH2Anv26AK-36" value="" style="edgeStyle=orthogonalEdgeStyle;rounded=0;orthogonalLoop=1;jettySize=auto;html=1;" parent="1" source="iMO2lGKUr8zH2Anv26AK-6" target="iMO2lGKUr8zH2Anv26AK-7" edge="1">
          <mxGeometry relative="1" as="geometry" />
        </mxCell>
        <mxCell id="iMO2lGKUr8zH2Anv26AK-71" style="edgeStyle=orthogonalEdgeStyle;curved=1;rounded=0;orthogonalLoop=1;jettySize=auto;html=1;exitX=0.5;exitY=1;exitDx=0;exitDy=0;entryX=0.5;entryY=1;entryDx=0;entryDy=0;dashed=1;" parent="1" source="iMO2lGKUr8zH2Anv26AK-6" target="iMO2lGKUr8zH2Anv26AK-24" edge="1">
          <mxGeometry relative="1" as="geometry">
            <Array as="points">
              <mxPoint x="120" y="400" />
              <mxPoint x="560" y="400" />
            </Array>
          </mxGeometry>
        </mxCell>
        <mxCell id="iMO2lGKUr8zH2Anv26AK-6" value="Res" style="rounded=1;whiteSpace=wrap;html=1;fillColor=#dae8fc;strokeColor=#6c8ebf;" parent="1" vertex="1">
          <mxGeometry x="80" y="320" width="80" height="40" as="geometry" />
        </mxCell>
        <mxCell id="iMO2lGKUr8zH2Anv26AK-37" style="edgeStyle=orthogonalEdgeStyle;rounded=0;orthogonalLoop=1;jettySize=auto;html=1;exitX=0.5;exitY=1;exitDx=0;exitDy=0;entryX=0.5;entryY=0;entryDx=0;entryDy=0;" parent="1" source="iMO2lGKUr8zH2Anv26AK-7" target="iMO2lGKUr8zH2Anv26AK-8" edge="1">
          <mxGeometry relative="1" as="geometry" />
        </mxCell>
        <mxCell id="iMO2lGKUr8zH2Anv26AK-70" style="edgeStyle=orthogonalEdgeStyle;curved=1;rounded=0;orthogonalLoop=1;jettySize=auto;html=1;exitX=0.5;exitY=1;exitDx=0;exitDy=0;entryX=0.5;entryY=1;entryDx=0;entryDy=0;dashed=1;" parent="1" source="iMO2lGKUr8zH2Anv26AK-7" target="iMO2lGKUr8zH2Anv26AK-25" edge="1">
          <mxGeometry relative="1" as="geometry">
            <Array as="points">
              <mxPoint x="120" y="480" />
              <mxPoint x="560" y="480" />
            </Array>
          </mxGeometry>
        </mxCell>
        <mxCell id="iMO2lGKUr8zH2Anv26AK-7" value="Res" style="rounded=1;whiteSpace=wrap;html=1;fillColor=#dae8fc;strokeColor=#6c8ebf;" parent="1" vertex="1">
          <mxGeometry x="80" y="400" width="80" height="40" as="geometry" />
        </mxCell>
        <mxCell id="iMO2lGKUr8zH2Anv26AK-38" value="" style="edgeStyle=orthogonalEdgeStyle;rounded=0;orthogonalLoop=1;jettySize=auto;html=1;" parent="1" source="iMO2lGKUr8zH2Anv26AK-8" target="iMO2lGKUr8zH2Anv26AK-9" edge="1">
          <mxGeometry relative="1" as="geometry" />
        </mxCell>
        <mxCell id="iMO2lGKUr8zH2Anv26AK-69" style="edgeStyle=orthogonalEdgeStyle;curved=1;rounded=0;orthogonalLoop=1;jettySize=auto;html=1;exitX=0.5;exitY=1;exitDx=0;exitDy=0;entryX=0.5;entryY=1;entryDx=0;entryDy=0;dashed=1;" parent="1" source="iMO2lGKUr8zH2Anv26AK-8" target="iMO2lGKUr8zH2Anv26AK-22" edge="1">
          <mxGeometry relative="1" as="geometry">
            <Array as="points">
              <mxPoint x="120" y="640" />
              <mxPoint x="560" y="640" />
            </Array>
          </mxGeometry>
        </mxCell>
        <mxCell id="iMO2lGKUr8zH2Anv26AK-8" value="DS" style="rounded=1;whiteSpace=wrap;html=1;fillColor=#f8cecc;strokeColor=#b85450;" parent="1" vertex="1">
          <mxGeometry x="80" y="560" width="80" height="40" as="geometry" />
        </mxCell>
        <mxCell id="iMO2lGKUr8zH2Anv26AK-39" value="" style="edgeStyle=orthogonalEdgeStyle;rounded=0;orthogonalLoop=1;jettySize=auto;html=1;" parent="1" source="iMO2lGKUr8zH2Anv26AK-9" target="iMO2lGKUr8zH2Anv26AK-10" edge="1">
          <mxGeometry relative="1" as="geometry" />
        </mxCell>
        <mxCell id="iMO2lGKUr8zH2Anv26AK-68" style="edgeStyle=orthogonalEdgeStyle;curved=1;rounded=0;orthogonalLoop=1;jettySize=auto;html=1;exitX=0.5;exitY=1;exitDx=0;exitDy=0;entryX=0.5;entryY=1;entryDx=0;entryDy=0;dashed=1;" parent="1" source="iMO2lGKUr8zH2Anv26AK-9" target="iMO2lGKUr8zH2Anv26AK-20" edge="1">
          <mxGeometry relative="1" as="geometry">
            <Array as="points">
              <mxPoint x="120" y="720" />
              <mxPoint x="560" y="720" />
            </Array>
          </mxGeometry>
        </mxCell>
        <mxCell id="iMO2lGKUr8zH2Anv26AK-9" value="ResA" style="rounded=1;whiteSpace=wrap;html=1;fillColor=#d5e8d4;strokeColor=#82b366;" parent="1" vertex="1">
          <mxGeometry x="80" y="640" width="80" height="40" as="geometry" />
        </mxCell>
        <mxCell id="iMO2lGKUr8zH2Anv26AK-40" style="edgeStyle=orthogonalEdgeStyle;rounded=0;orthogonalLoop=1;jettySize=auto;html=1;exitX=0.5;exitY=1;exitDx=0;exitDy=0;entryX=0.5;entryY=0;entryDx=0;entryDy=0;" parent="1" source="iMO2lGKUr8zH2Anv26AK-10" target="iMO2lGKUr8zH2Anv26AK-11" edge="1">
          <mxGeometry relative="1" as="geometry" />
        </mxCell>
        <mxCell id="iMO2lGKUr8zH2Anv26AK-67" style="edgeStyle=orthogonalEdgeStyle;curved=1;rounded=0;orthogonalLoop=1;jettySize=auto;html=1;exitX=0.5;exitY=1;exitDx=0;exitDy=0;entryX=0.5;entryY=1;entryDx=0;entryDy=0;dashed=1;" parent="1" source="iMO2lGKUr8zH2Anv26AK-10" target="iMO2lGKUr8zH2Anv26AK-21" edge="1">
          <mxGeometry relative="1" as="geometry">
            <Array as="points">
              <mxPoint x="120" y="800" />
              <mxPoint x="560" y="800" />
            </Array>
          </mxGeometry>
        </mxCell>
        <mxCell id="iMO2lGKUr8zH2Anv26AK-10" value="ResA" style="rounded=1;whiteSpace=wrap;html=1;fillColor=#d5e8d4;strokeColor=#82b366;" parent="1" vertex="1">
          <mxGeometry x="80" y="720" width="80" height="40" as="geometry" />
        </mxCell>
        <mxCell id="iMO2lGKUr8zH2Anv26AK-41" value="" style="edgeStyle=orthogonalEdgeStyle;rounded=0;orthogonalLoop=1;jettySize=auto;html=1;" parent="1" source="iMO2lGKUr8zH2Anv26AK-11" target="iMO2lGKUr8zH2Anv26AK-12" edge="1">
          <mxGeometry relative="1" as="geometry" />
        </mxCell>
        <mxCell id="iMO2lGKUr8zH2Anv26AK-66" style="edgeStyle=orthogonalEdgeStyle;curved=1;rounded=0;orthogonalLoop=1;jettySize=auto;html=1;exitX=0.5;exitY=1;exitDx=0;exitDy=0;entryX=0.5;entryY=1;entryDx=0;entryDy=0;dashed=1;" parent="1" source="iMO2lGKUr8zH2Anv26AK-11" target="iMO2lGKUr8zH2Anv26AK-18" edge="1">
          <mxGeometry relative="1" as="geometry">
            <Array as="points">
              <mxPoint x="120" y="960" />
              <mxPoint x="560" y="960" />
            </Array>
          </mxGeometry>
        </mxCell>
        <mxCell id="iMO2lGKUr8zH2Anv26AK-11" value="DS" style="rounded=1;whiteSpace=wrap;html=1;fillColor=#f8cecc;strokeColor=#b85450;" parent="1" vertex="1">
          <mxGeometry x="80" y="880" width="80" height="40" as="geometry" />
        </mxCell>
        <mxCell id="iMO2lGKUr8zH2Anv26AK-42" value="" style="edgeStyle=orthogonalEdgeStyle;rounded=0;orthogonalLoop=1;jettySize=auto;html=1;" parent="1" source="iMO2lGKUr8zH2Anv26AK-12" target="iMO2lGKUr8zH2Anv26AK-13" edge="1">
          <mxGeometry relative="1" as="geometry" />
        </mxCell>
        <mxCell id="iMO2lGKUr8zH2Anv26AK-65" style="edgeStyle=orthogonalEdgeStyle;curved=1;rounded=0;orthogonalLoop=1;jettySize=auto;html=1;exitX=0.5;exitY=1;exitDx=0;exitDy=0;entryX=0.5;entryY=1;entryDx=0;entryDy=0;dashed=1;" parent="1" source="iMO2lGKUr8zH2Anv26AK-12" target="iMO2lGKUr8zH2Anv26AK-16" edge="1">
          <mxGeometry relative="1" as="geometry">
            <Array as="points">
              <mxPoint x="120" y="1040" />
              <mxPoint x="560" y="1040" />
            </Array>
          </mxGeometry>
        </mxCell>
        <mxCell id="iMO2lGKUr8zH2Anv26AK-12" value="Res" style="rounded=1;whiteSpace=wrap;html=1;fillColor=#dae8fc;strokeColor=#6c8ebf;" parent="1" vertex="1">
          <mxGeometry x="80" y="960" width="80" height="40" as="geometry" />
        </mxCell>
        <mxCell id="iMO2lGKUr8zH2Anv26AK-64" style="edgeStyle=orthogonalEdgeStyle;curved=1;rounded=0;orthogonalLoop=1;jettySize=auto;html=1;exitX=0.5;exitY=1;exitDx=0;exitDy=0;entryX=0.5;entryY=1;entryDx=0;entryDy=0;dashed=1;" parent="1" source="iMO2lGKUr8zH2Anv26AK-13" target="iMO2lGKUr8zH2Anv26AK-17" edge="1">
          <mxGeometry relative="1" as="geometry">
            <Array as="points">
              <mxPoint x="120" y="1120" />
              <mxPoint x="560" y="1120" />
            </Array>
          </mxGeometry>
        </mxCell>
        <mxCell id="iMO2lGKUr8zH2Anv26AK-82" style="edgeStyle=orthogonalEdgeStyle;curved=1;rounded=0;orthogonalLoop=1;jettySize=auto;html=1;exitX=0.5;exitY=1;exitDx=0;exitDy=0;entryX=0;entryY=0.5;entryDx=0;entryDy=0;" parent="1" source="iMO2lGKUr8zH2Anv26AK-13" target="iMO2lGKUr8zH2Anv26AK-14" edge="1">
          <mxGeometry relative="1" as="geometry" />
        </mxCell>
        <mxCell id="iMO2lGKUr8zH2Anv26AK-13" value="Res" style="rounded=1;whiteSpace=wrap;html=1;fillColor=#dae8fc;strokeColor=#6c8ebf;" parent="1" vertex="1">
          <mxGeometry x="80" y="1040" width="80" height="40" as="geometry" />
        </mxCell>
        <mxCell id="iMO2lGKUr8zH2Anv26AK-44" value="" style="edgeStyle=orthogonalEdgeStyle;rounded=0;orthogonalLoop=1;jettySize=auto;html=1;" parent="1" source="iMO2lGKUr8zH2Anv26AK-14" target="iMO2lGKUr8zH2Anv26AK-15" edge="1">
          <mxGeometry relative="1" as="geometry" />
        </mxCell>
        <mxCell id="iMO2lGKUr8zH2Anv26AK-14" value="Res" style="rounded=1;whiteSpace=wrap;html=1;fillColor=#dae8fc;strokeColor=#6c8ebf;" parent="1" vertex="1">
          <mxGeometry x="240" y="1129" width="80" height="40" as="geometry" />
        </mxCell>
        <mxCell id="iMO2lGKUr8zH2Anv26AK-83" style="edgeStyle=orthogonalEdgeStyle;curved=1;rounded=0;orthogonalLoop=1;jettySize=auto;html=1;exitX=1;exitY=0.5;exitDx=0;exitDy=0;entryX=0.5;entryY=1;entryDx=0;entryDy=0;" parent="1" source="iMO2lGKUr8zH2Anv26AK-15" target="iMO2lGKUr8zH2Anv26AK-17" edge="1">
          <mxGeometry relative="1" as="geometry" />
        </mxCell>
        <mxCell id="iMO2lGKUr8zH2Anv26AK-15" value="Res" style="rounded=1;whiteSpace=wrap;html=1;fillColor=#dae8fc;strokeColor=#6c8ebf;" parent="1" vertex="1">
          <mxGeometry x="360" y="1129" width="80" height="40" as="geometry" />
        </mxCell>
        <mxCell id="iMO2lGKUr8zH2Anv26AK-47" value="" style="edgeStyle=orthogonalEdgeStyle;rounded=0;orthogonalLoop=1;jettySize=auto;html=1;" parent="1" source="iMO2lGKUr8zH2Anv26AK-16" target="iMO2lGKUr8zH2Anv26AK-18" edge="1">
          <mxGeometry relative="1" as="geometry" />
        </mxCell>
        <mxCell id="iMO2lGKUr8zH2Anv26AK-16" value="Res" style="rounded=1;whiteSpace=wrap;html=1;fillColor=#dae8fc;strokeColor=#6c8ebf;" parent="1" vertex="1">
          <mxGeometry x="520" y="960" width="80" height="40" as="geometry" />
        </mxCell>
        <mxCell id="iMO2lGKUr8zH2Anv26AK-46" value="" style="edgeStyle=orthogonalEdgeStyle;rounded=0;orthogonalLoop=1;jettySize=auto;html=1;" parent="1" source="iMO2lGKUr8zH2Anv26AK-17" target="iMO2lGKUr8zH2Anv26AK-16" edge="1">
          <mxGeometry relative="1" as="geometry" />
        </mxCell>
        <mxCell id="iMO2lGKUr8zH2Anv26AK-17" value="Res" style="rounded=1;whiteSpace=wrap;html=1;fillColor=#dae8fc;strokeColor=#6c8ebf;" parent="1" vertex="1">
          <mxGeometry x="520" y="1040" width="80" height="40" as="geometry" />
        </mxCell>
        <mxCell id="iMO2lGKUr8zH2Anv26AK-48" value="" style="edgeStyle=orthogonalEdgeStyle;rounded=0;orthogonalLoop=1;jettySize=auto;html=1;" parent="1" source="iMO2lGKUr8zH2Anv26AK-18" target="iMO2lGKUr8zH2Anv26AK-19" edge="1">
          <mxGeometry relative="1" as="geometry" />
        </mxCell>
        <mxCell id="iMO2lGKUr8zH2Anv26AK-18" value="Res" style="rounded=1;whiteSpace=wrap;html=1;fillColor=#dae8fc;strokeColor=#6c8ebf;" parent="1" vertex="1">
          <mxGeometry x="520" y="880" width="80" height="40" as="geometry" />
        </mxCell>
        <mxCell id="iMO2lGKUr8zH2Anv26AK-49" value="" style="edgeStyle=orthogonalEdgeStyle;rounded=0;orthogonalLoop=1;jettySize=auto;html=1;" parent="1" source="iMO2lGKUr8zH2Anv26AK-19" target="iMO2lGKUr8zH2Anv26AK-21" edge="1">
          <mxGeometry relative="1" as="geometry" />
        </mxCell>
        <mxCell id="iMO2lGKUr8zH2Anv26AK-19" value="US" style="rounded=1;whiteSpace=wrap;html=1;" parent="1" vertex="1">
          <mxGeometry x="520" y="800" width="80" height="40" as="geometry" />
        </mxCell>
        <mxCell id="iMO2lGKUr8zH2Anv26AK-51" value="" style="edgeStyle=orthogonalEdgeStyle;rounded=0;orthogonalLoop=1;jettySize=auto;html=1;" parent="1" source="iMO2lGKUr8zH2Anv26AK-20" target="iMO2lGKUr8zH2Anv26AK-22" edge="1">
          <mxGeometry relative="1" as="geometry" />
        </mxCell>
        <mxCell id="iMO2lGKUr8zH2Anv26AK-20" value="ResA" style="rounded=1;whiteSpace=wrap;html=1;fillColor=#d5e8d4;strokeColor=#82b366;shadow=0;glass=0;" parent="1" vertex="1">
          <mxGeometry x="520" y="640" width="80" height="40" as="geometry" />
        </mxCell>
        <mxCell id="iMO2lGKUr8zH2Anv26AK-50" value="" style="edgeStyle=orthogonalEdgeStyle;rounded=0;orthogonalLoop=1;jettySize=auto;html=1;" parent="1" source="iMO2lGKUr8zH2Anv26AK-21" target="iMO2lGKUr8zH2Anv26AK-20" edge="1">
          <mxGeometry relative="1" as="geometry" />
        </mxCell>
        <mxCell id="iMO2lGKUr8zH2Anv26AK-21" value="ResA" style="rounded=1;whiteSpace=wrap;html=1;fillColor=#d5e8d4;strokeColor=#82b366;" parent="1" vertex="1">
          <mxGeometry x="520" y="720" width="80" height="40" as="geometry" />
        </mxCell>
        <mxCell id="iMO2lGKUr8zH2Anv26AK-52" value="" style="edgeStyle=orthogonalEdgeStyle;rounded=0;orthogonalLoop=1;jettySize=auto;html=1;" parent="1" source="iMO2lGKUr8zH2Anv26AK-22" target="iMO2lGKUr8zH2Anv26AK-23" edge="1">
          <mxGeometry relative="1" as="geometry" />
        </mxCell>
        <mxCell id="iMO2lGKUr8zH2Anv26AK-22" value="ResA" style="rounded=1;whiteSpace=wrap;html=1;fillColor=#d5e8d4;strokeColor=#82b366;" parent="1" vertex="1">
          <mxGeometry x="520" y="560" width="80" height="40" as="geometry" />
        </mxCell>
        <mxCell id="iMO2lGKUr8zH2Anv26AK-53" value="" style="edgeStyle=orthogonalEdgeStyle;rounded=0;orthogonalLoop=1;jettySize=auto;html=1;" parent="1" source="iMO2lGKUr8zH2Anv26AK-23" target="iMO2lGKUr8zH2Anv26AK-25" edge="1">
          <mxGeometry relative="1" as="geometry" />
        </mxCell>
        <mxCell id="iMO2lGKUr8zH2Anv26AK-23" value="US" style="rounded=1;whiteSpace=wrap;html=1;" parent="1" vertex="1">
          <mxGeometry x="520" y="480" width="80" height="40" as="geometry" />
        </mxCell>
        <mxCell id="iMO2lGKUr8zH2Anv26AK-55" value="" style="edgeStyle=orthogonalEdgeStyle;rounded=0;orthogonalLoop=1;jettySize=auto;html=1;" parent="1" source="iMO2lGKUr8zH2Anv26AK-24" target="iMO2lGKUr8zH2Anv26AK-26" edge="1">
          <mxGeometry relative="1" as="geometry" />
        </mxCell>
        <mxCell id="iMO2lGKUr8zH2Anv26AK-24" value="Res" style="rounded=1;whiteSpace=wrap;html=1;fillColor=#dae8fc;strokeColor=#6c8ebf;" parent="1" vertex="1">
          <mxGeometry x="520" y="320" width="80" height="40" as="geometry" />
        </mxCell>
        <mxCell id="iMO2lGKUr8zH2Anv26AK-54" value="" style="edgeStyle=orthogonalEdgeStyle;rounded=0;orthogonalLoop=1;jettySize=auto;html=1;" parent="1" source="iMO2lGKUr8zH2Anv26AK-25" target="iMO2lGKUr8zH2Anv26AK-24" edge="1">
          <mxGeometry relative="1" as="geometry" />
        </mxCell>
        <mxCell id="iMO2lGKUr8zH2Anv26AK-25" value="Res" style="rounded=1;whiteSpace=wrap;html=1;fillColor=#dae8fc;strokeColor=#6c8ebf;" parent="1" vertex="1">
          <mxGeometry x="520" y="400" width="80" height="40" as="geometry" />
        </mxCell>
        <mxCell id="iMO2lGKUr8zH2Anv26AK-56" value="" style="edgeStyle=orthogonalEdgeStyle;rounded=0;orthogonalLoop=1;jettySize=auto;html=1;" parent="1" source="iMO2lGKUr8zH2Anv26AK-26" target="iMO2lGKUr8zH2Anv26AK-27" edge="1">
          <mxGeometry relative="1" as="geometry" />
        </mxCell>
        <mxCell id="iMO2lGKUr8zH2Anv26AK-26" value="Res" style="rounded=1;whiteSpace=wrap;html=1;fillColor=#dae8fc;strokeColor=#6c8ebf;" parent="1" vertex="1">
          <mxGeometry x="520" y="240" width="80" height="40" as="geometry" />
        </mxCell>
        <mxCell id="iMO2lGKUr8zH2Anv26AK-57" value="" style="edgeStyle=orthogonalEdgeStyle;rounded=0;orthogonalLoop=1;jettySize=auto;html=1;" parent="1" source="iMO2lGKUr8zH2Anv26AK-27" target="iMO2lGKUr8zH2Anv26AK-29" edge="1">
          <mxGeometry relative="1" as="geometry" />
        </mxCell>
        <mxCell id="iMO2lGKUr8zH2Anv26AK-27" value="US" style="rounded=1;whiteSpace=wrap;html=1;fillColor=#e1d5e7;strokeColor=#9673a6;" parent="1" vertex="1">
          <mxGeometry x="520" y="160" width="80" height="40" as="geometry" />
        </mxCell>
        <mxCell id="iMO2lGKUr8zH2Anv26AK-59" value="" style="edgeStyle=orthogonalEdgeStyle;rounded=0;orthogonalLoop=1;jettySize=auto;html=1;" parent="1" source="iMO2lGKUr8zH2Anv26AK-28" target="iMO2lGKUr8zH2Anv26AK-30" edge="1">
          <mxGeometry relative="1" as="geometry" />
        </mxCell>
        <mxCell id="iMO2lGKUr8zH2Anv26AK-28" value="Res" style="rounded=1;whiteSpace=wrap;html=1;fillColor=#dae8fc;strokeColor=#6c8ebf;" parent="1" vertex="1">
          <mxGeometry x="520" width="80" height="40" as="geometry" />
        </mxCell>
        <mxCell id="iMO2lGKUr8zH2Anv26AK-58" value="" style="edgeStyle=orthogonalEdgeStyle;rounded=0;orthogonalLoop=1;jettySize=auto;html=1;" parent="1" source="iMO2lGKUr8zH2Anv26AK-29" target="iMO2lGKUr8zH2Anv26AK-28" edge="1">
          <mxGeometry relative="1" as="geometry" />
        </mxCell>
        <mxCell id="iMO2lGKUr8zH2Anv26AK-29" value="Res" style="rounded=1;whiteSpace=wrap;html=1;fillColor=#dae8fc;strokeColor=#6c8ebf;" parent="1" vertex="1">
          <mxGeometry x="520" y="80" width="80" height="40" as="geometry" />
        </mxCell>
        <mxCell id="iMO2lGKUr8zH2Anv26AK-60" value="" style="edgeStyle=orthogonalEdgeStyle;rounded=0;orthogonalLoop=1;jettySize=auto;html=1;" parent="1" source="iMO2lGKUr8zH2Anv26AK-30" target="iMO2lGKUr8zH2Anv26AK-31" edge="1">
          <mxGeometry relative="1" as="geometry" />
        </mxCell>
        <mxCell id="iMO2lGKUr8zH2Anv26AK-30" value="Res" style="rounded=1;whiteSpace=wrap;html=1;fillColor=#dae8fc;strokeColor=#6c8ebf;" parent="1" vertex="1">
          <mxGeometry x="520" y="-80" width="80" height="40" as="geometry" />
        </mxCell>
        <mxCell id="iMO2lGKUr8zH2Anv26AK-79" value="" style="edgeStyle=orthogonalEdgeStyle;curved=1;rounded=0;orthogonalLoop=1;jettySize=auto;html=1;" parent="1" source="iMO2lGKUr8zH2Anv26AK-31" target="iMO2lGKUr8zH2Anv26AK-78" edge="1">
          <mxGeometry relative="1" as="geometry" />
        </mxCell>
        <mxCell id="iMO2lGKUr8zH2Anv26AK-31" value="Final" style="rounded=1;whiteSpace=wrap;html=1;" parent="1" vertex="1">
          <mxGeometry x="520" y="-160" width="80" height="40" as="geometry" />
        </mxCell>
        <mxCell id="vos_EPktBbN4nnMoWkFi-5" style="edgeStyle=orthogonalEdgeStyle;rounded=0;orthogonalLoop=1;jettySize=auto;html=1;exitX=0.5;exitY=1;exitDx=0;exitDy=0;entryX=0.5;entryY=0;entryDx=0;entryDy=0;" parent="1" source="iMO2lGKUr8zH2Anv26AK-76" target="iMO2lGKUr8zH2Anv26AK-1" edge="1">
          <mxGeometry relative="1" as="geometry" />
        </mxCell>
        <mxCell id="iMO2lGKUr8zH2Anv26AK-76" value="x, timestep" style="rounded=0;whiteSpace=wrap;html=1;strokeColor=none;fillColor=none;" parent="1" vertex="1">
          <mxGeometry x="80" y="-240" width="80" height="40" as="geometry" />
        </mxCell>
        <mxCell id="iMO2lGKUr8zH2Anv26AK-78" value="y" style="rounded=0;whiteSpace=wrap;html=1;strokeColor=none;fillColor=none;" parent="1" vertex="1">
          <mxGeometry x="540" y="-240" width="40" height="40" as="geometry" />
        </mxCell>
        <mxCell id="iMO2lGKUr8zH2Anv26AK-80" value="US" style="rounded=1;whiteSpace=wrap;html=1;fillColor=#e1d5e7;strokeColor=#9673a6;" parent="1" vertex="1">
          <mxGeometry x="520" y="800" width="80" height="40" as="geometry" />
        </mxCell>
        <mxCell id="iMO2lGKUr8zH2Anv26AK-81" value="US" style="rounded=1;whiteSpace=wrap;html=1;fillColor=#e1d5e7;strokeColor=#9673a6;" parent="1" vertex="1">
          <mxGeometry x="520" y="480" width="80" height="40" as="geometry" />
        </mxCell>
        <mxCell id="iMO2lGKUr8zH2Anv26AK-90" value="" style="edgeStyle=orthogonalEdgeStyle;curved=1;rounded=0;orthogonalLoop=1;jettySize=auto;html=1;" parent="1" source="iMO2lGKUr8zH2Anv26AK-85" target="iMO2lGKUr8zH2Anv26AK-86" edge="1">
          <mxGeometry relative="1" as="geometry" />
        </mxCell>
        <mxCell id="iMO2lGKUr8zH2Anv26AK-85" value="GN" style="rounded=1;whiteSpace=wrap;html=1;" parent="1" vertex="1">
          <mxGeometry x="80" y="1460" width="80" height="40" as="geometry" />
        </mxCell>
        <mxCell id="iMO2lGKUr8zH2Anv26AK-91" value="" style="edgeStyle=orthogonalEdgeStyle;curved=1;rounded=0;orthogonalLoop=1;jettySize=auto;html=1;" parent="1" source="iMO2lGKUr8zH2Anv26AK-86" target="iMO2lGKUr8zH2Anv26AK-87" edge="1">
          <mxGeometry relative="1" as="geometry" />
        </mxCell>
        <mxCell id="iMO2lGKUr8zH2Anv26AK-86" value="Act" style="rounded=1;whiteSpace=wrap;html=1;" parent="1" vertex="1">
          <mxGeometry x="80" y="1540" width="80" height="40" as="geometry" />
        </mxCell>
        <mxCell id="iMO2lGKUr8zH2Anv26AK-102" style="edgeStyle=orthogonalEdgeStyle;rounded=0;orthogonalLoop=1;jettySize=auto;html=1;exitX=0.5;exitY=1;exitDx=0;exitDy=0;entryX=0;entryY=0.5;entryDx=0;entryDy=0;" parent="1" source="iMO2lGKUr8zH2Anv26AK-87" target="iMO2lGKUr8zH2Anv26AK-99" edge="1">
          <mxGeometry relative="1" as="geometry" />
        </mxCell>
        <mxCell id="iMO2lGKUr8zH2Anv26AK-87" value="conv" style="rounded=1;whiteSpace=wrap;html=1;" parent="1" vertex="1">
          <mxGeometry x="80" y="1620" width="80" height="40" as="geometry" />
        </mxCell>
        <mxCell id="iMO2lGKUr8zH2Anv26AK-94" style="edgeStyle=orthogonalEdgeStyle;curved=1;rounded=0;orthogonalLoop=1;jettySize=auto;html=1;exitX=0.5;exitY=1;exitDx=0;exitDy=0;entryX=0.5;entryY=0;entryDx=0;entryDy=0;" parent="1" source="iMO2lGKUr8zH2Anv26AK-88" target="iMO2lGKUr8zH2Anv26AK-89" edge="1">
          <mxGeometry relative="1" as="geometry" />
        </mxCell>
        <mxCell id="iMO2lGKUr8zH2Anv26AK-88" value="FC" style="rounded=1;whiteSpace=wrap;html=1;" parent="1" vertex="1">
          <mxGeometry x="240" y="1540" width="80" height="40" as="geometry" />
        </mxCell>
        <mxCell id="iMO2lGKUr8zH2Anv26AK-103" style="edgeStyle=orthogonalEdgeStyle;rounded=0;orthogonalLoop=1;jettySize=auto;html=1;exitX=0.5;exitY=1;exitDx=0;exitDy=0;entryX=1;entryY=0.5;entryDx=0;entryDy=0;" parent="1" source="iMO2lGKUr8zH2Anv26AK-89" target="iMO2lGKUr8zH2Anv26AK-99" edge="1">
          <mxGeometry relative="1" as="geometry" />
        </mxCell>
        <mxCell id="iMO2lGKUr8zH2Anv26AK-89" value="Act" style="rounded=1;whiteSpace=wrap;html=1;" parent="1" vertex="1">
          <mxGeometry x="240" y="1620" width="80" height="40" as="geometry" />
        </mxCell>
        <mxCell id="iMO2lGKUr8zH2Anv26AK-96" value="" style="edgeStyle=orthogonalEdgeStyle;curved=1;rounded=0;orthogonalLoop=1;jettySize=auto;html=1;" parent="1" source="iMO2lGKUr8zH2Anv26AK-95" target="iMO2lGKUr8zH2Anv26AK-85" edge="1">
          <mxGeometry relative="1" as="geometry" />
        </mxCell>
        <mxCell id="iMO2lGKUr8zH2Anv26AK-113" style="edgeStyle=orthogonalEdgeStyle;rounded=0;orthogonalLoop=1;jettySize=auto;html=1;exitX=0.5;exitY=1;exitDx=0;exitDy=0;entryX=0.5;entryY=0;entryDx=0;entryDy=0;" parent="1" source="iMO2lGKUr8zH2Anv26AK-95" target="iMO2lGKUr8zH2Anv26AK-112" edge="1">
          <mxGeometry relative="1" as="geometry">
            <Array as="points">
              <mxPoint x="40" y="1410" />
            </Array>
          </mxGeometry>
        </mxCell>
        <mxCell id="iMO2lGKUr8zH2Anv26AK-95" value="x" style="text;html=1;strokeColor=none;fillColor=none;align=center;verticalAlign=middle;whiteSpace=wrap;rounded=0;" parent="1" vertex="1">
          <mxGeometry x="90" y="1380" width="60" height="30" as="geometry" />
        </mxCell>
        <mxCell id="vos_EPktBbN4nnMoWkFi-12" style="edgeStyle=orthogonalEdgeStyle;rounded=0;orthogonalLoop=1;jettySize=auto;html=1;exitX=0.5;exitY=1;exitDx=0;exitDy=0;" parent="1" source="iMO2lGKUr8zH2Anv26AK-97" target="iMO2lGKUr8zH2Anv26AK-88" edge="1">
          <mxGeometry relative="1" as="geometry" />
        </mxCell>
        <mxCell id="iMO2lGKUr8zH2Anv26AK-97" value="timestep&lt;br&gt;embedding" style="text;html=1;strokeColor=none;fillColor=none;align=center;verticalAlign=middle;whiteSpace=wrap;rounded=0;" parent="1" vertex="1">
          <mxGeometry x="250" y="1380" width="60" height="30" as="geometry" />
        </mxCell>
        <mxCell id="iMO2lGKUr8zH2Anv26AK-105" value="" style="edgeStyle=orthogonalEdgeStyle;rounded=0;orthogonalLoop=1;jettySize=auto;html=1;" parent="1" source="iMO2lGKUr8zH2Anv26AK-99" target="iMO2lGKUr8zH2Anv26AK-104" edge="1">
          <mxGeometry relative="1" as="geometry" />
        </mxCell>
        <mxCell id="iMO2lGKUr8zH2Anv26AK-99" value="add" style="rounded=1;whiteSpace=wrap;html=1;" parent="1" vertex="1">
          <mxGeometry x="160" y="1700" width="80" height="40" as="geometry" />
        </mxCell>
        <mxCell id="iMO2lGKUr8zH2Anv26AK-107" value="" style="edgeStyle=orthogonalEdgeStyle;rounded=0;orthogonalLoop=1;jettySize=auto;html=1;" parent="1" source="iMO2lGKUr8zH2Anv26AK-104" target="iMO2lGKUr8zH2Anv26AK-106" edge="1">
          <mxGeometry relative="1" as="geometry" />
        </mxCell>
        <mxCell id="iMO2lGKUr8zH2Anv26AK-104" value="GN" style="rounded=1;whiteSpace=wrap;html=1;" parent="1" vertex="1">
          <mxGeometry x="160" y="1780" width="80" height="40" as="geometry" />
        </mxCell>
        <mxCell id="iMO2lGKUr8zH2Anv26AK-110" value="" style="edgeStyle=orthogonalEdgeStyle;rounded=0;orthogonalLoop=1;jettySize=auto;html=1;" parent="1" source="iMO2lGKUr8zH2Anv26AK-106" target="iMO2lGKUr8zH2Anv26AK-108" edge="1">
          <mxGeometry relative="1" as="geometry" />
        </mxCell>
        <mxCell id="iMO2lGKUr8zH2Anv26AK-106" value="Act" style="rounded=1;whiteSpace=wrap;html=1;" parent="1" vertex="1">
          <mxGeometry x="160" y="1860" width="80" height="40" as="geometry" />
        </mxCell>
        <mxCell id="iMO2lGKUr8zH2Anv26AK-111" value="" style="edgeStyle=orthogonalEdgeStyle;rounded=0;orthogonalLoop=1;jettySize=auto;html=1;" parent="1" source="iMO2lGKUr8zH2Anv26AK-108" target="iMO2lGKUr8zH2Anv26AK-109" edge="1">
          <mxGeometry relative="1" as="geometry" />
        </mxCell>
        <mxCell id="iMO2lGKUr8zH2Anv26AK-108" value="Dropout" style="rounded=1;whiteSpace=wrap;html=1;" parent="1" vertex="1">
          <mxGeometry x="160" y="1940" width="80" height="40" as="geometry" />
        </mxCell>
        <mxCell id="iMO2lGKUr8zH2Anv26AK-117" value="" style="edgeStyle=orthogonalEdgeStyle;rounded=0;orthogonalLoop=1;jettySize=auto;html=1;" parent="1" source="iMO2lGKUr8zH2Anv26AK-109" target="iMO2lGKUr8zH2Anv26AK-114" edge="1">
          <mxGeometry relative="1" as="geometry" />
        </mxCell>
        <mxCell id="iMO2lGKUr8zH2Anv26AK-109" value="conv" style="rounded=1;whiteSpace=wrap;html=1;" parent="1" vertex="1">
          <mxGeometry x="160" y="2020" width="80" height="40" as="geometry" />
        </mxCell>
        <mxCell id="iMO2lGKUr8zH2Anv26AK-115" style="edgeStyle=orthogonalEdgeStyle;rounded=0;orthogonalLoop=1;jettySize=auto;html=1;exitX=0.5;exitY=1;exitDx=0;exitDy=0;entryX=0;entryY=0.5;entryDx=0;entryDy=0;" parent="1" source="iMO2lGKUr8zH2Anv26AK-112" target="iMO2lGKUr8zH2Anv26AK-114" edge="1">
          <mxGeometry relative="1" as="geometry" />
        </mxCell>
        <mxCell id="iMO2lGKUr8zH2Anv26AK-112" value="match" style="rounded=1;whiteSpace=wrap;html=1;" parent="1" vertex="1">
          <mxGeometry y="2020" width="80" height="40" as="geometry" />
        </mxCell>
        <mxCell id="iMO2lGKUr8zH2Anv26AK-152" style="edgeStyle=orthogonalEdgeStyle;rounded=0;orthogonalLoop=1;jettySize=auto;html=1;exitX=0.5;exitY=1;exitDx=0;exitDy=0;entryX=0.5;entryY=0;entryDx=0;entryDy=0;" parent="1" source="iMO2lGKUr8zH2Anv26AK-114" target="iMO2lGKUr8zH2Anv26AK-149" edge="1">
          <mxGeometry relative="1" as="geometry" />
        </mxCell>
        <mxCell id="iMO2lGKUr8zH2Anv26AK-114" value="add" style="rounded=1;whiteSpace=wrap;html=1;" parent="1" vertex="1">
          <mxGeometry x="160" y="2100" width="80" height="40" as="geometry" />
        </mxCell>
        <mxCell id="iMO2lGKUr8zH2Anv26AK-119" value="" style="edgeStyle=orthogonalEdgeStyle;curved=1;rounded=0;orthogonalLoop=1;jettySize=auto;html=1;" parent="1" source="iMO2lGKUr8zH2Anv26AK-120" target="iMO2lGKUr8zH2Anv26AK-122" edge="1">
          <mxGeometry relative="1" as="geometry" />
        </mxCell>
        <mxCell id="iMO2lGKUr8zH2Anv26AK-120" value="GN" style="rounded=1;whiteSpace=wrap;html=1;" parent="1" vertex="1">
          <mxGeometry x="490" y="1470" width="80" height="40" as="geometry" />
        </mxCell>
        <mxCell id="iMO2lGKUr8zH2Anv26AK-121" value="" style="edgeStyle=orthogonalEdgeStyle;curved=1;rounded=0;orthogonalLoop=1;jettySize=auto;html=1;" parent="1" source="iMO2lGKUr8zH2Anv26AK-122" target="iMO2lGKUr8zH2Anv26AK-124" edge="1">
          <mxGeometry relative="1" as="geometry" />
        </mxCell>
        <mxCell id="iMO2lGKUr8zH2Anv26AK-122" value="Act" style="rounded=1;whiteSpace=wrap;html=1;" parent="1" vertex="1">
          <mxGeometry x="490" y="1550" width="80" height="40" as="geometry" />
        </mxCell>
        <mxCell id="iMO2lGKUr8zH2Anv26AK-123" style="edgeStyle=orthogonalEdgeStyle;rounded=0;orthogonalLoop=1;jettySize=auto;html=1;exitX=0.5;exitY=1;exitDx=0;exitDy=0;entryX=0;entryY=0.5;entryDx=0;entryDy=0;" parent="1" source="iMO2lGKUr8zH2Anv26AK-124" target="iMO2lGKUr8zH2Anv26AK-135" edge="1">
          <mxGeometry relative="1" as="geometry" />
        </mxCell>
        <mxCell id="iMO2lGKUr8zH2Anv26AK-124" value="conv" style="rounded=1;whiteSpace=wrap;html=1;" parent="1" vertex="1">
          <mxGeometry x="490" y="1630" width="80" height="40" as="geometry" />
        </mxCell>
        <mxCell id="iMO2lGKUr8zH2Anv26AK-125" style="edgeStyle=orthogonalEdgeStyle;curved=1;rounded=0;orthogonalLoop=1;jettySize=auto;html=1;exitX=0.5;exitY=1;exitDx=0;exitDy=0;entryX=0.5;entryY=0;entryDx=0;entryDy=0;" parent="1" source="iMO2lGKUr8zH2Anv26AK-126" target="iMO2lGKUr8zH2Anv26AK-128" edge="1">
          <mxGeometry relative="1" as="geometry" />
        </mxCell>
        <mxCell id="iMO2lGKUr8zH2Anv26AK-126" value="FC" style="rounded=1;whiteSpace=wrap;html=1;" parent="1" vertex="1">
          <mxGeometry x="650" y="1550" width="80" height="40" as="geometry" />
        </mxCell>
        <mxCell id="iMO2lGKUr8zH2Anv26AK-127" style="edgeStyle=orthogonalEdgeStyle;rounded=0;orthogonalLoop=1;jettySize=auto;html=1;exitX=0.5;exitY=1;exitDx=0;exitDy=0;entryX=1;entryY=0.5;entryDx=0;entryDy=0;" parent="1" source="iMO2lGKUr8zH2Anv26AK-128" target="iMO2lGKUr8zH2Anv26AK-135" edge="1">
          <mxGeometry relative="1" as="geometry" />
        </mxCell>
        <mxCell id="iMO2lGKUr8zH2Anv26AK-128" value="Act" style="rounded=1;whiteSpace=wrap;html=1;" parent="1" vertex="1">
          <mxGeometry x="650" y="1630" width="80" height="40" as="geometry" />
        </mxCell>
        <mxCell id="iMO2lGKUr8zH2Anv26AK-129" value="" style="edgeStyle=orthogonalEdgeStyle;curved=1;rounded=0;orthogonalLoop=1;jettySize=auto;html=1;" parent="1" source="iMO2lGKUr8zH2Anv26AK-131" target="iMO2lGKUr8zH2Anv26AK-120" edge="1">
          <mxGeometry relative="1" as="geometry" />
        </mxCell>
        <mxCell id="iMO2lGKUr8zH2Anv26AK-130" style="edgeStyle=orthogonalEdgeStyle;rounded=0;orthogonalLoop=1;jettySize=auto;html=1;exitX=0.5;exitY=1;exitDx=0;exitDy=0;entryX=0.5;entryY=0;entryDx=0;entryDy=0;" parent="1" source="iMO2lGKUr8zH2Anv26AK-131" target="iMO2lGKUr8zH2Anv26AK-145" edge="1">
          <mxGeometry relative="1" as="geometry">
            <Array as="points">
              <mxPoint x="450" y="1420" />
            </Array>
          </mxGeometry>
        </mxCell>
        <mxCell id="iMO2lGKUr8zH2Anv26AK-131" value="x" style="text;html=1;strokeColor=none;fillColor=none;align=center;verticalAlign=middle;whiteSpace=wrap;rounded=0;" parent="1" vertex="1">
          <mxGeometry x="500" y="1390" width="60" height="30" as="geometry" />
        </mxCell>
        <mxCell id="iMO2lGKUr8zH2Anv26AK-133" value="timestep&lt;br style=&quot;border-color: var(--border-color);&quot;&gt;embedding" style="text;html=1;strokeColor=none;fillColor=none;align=center;verticalAlign=middle;whiteSpace=wrap;rounded=0;" parent="1" vertex="1">
          <mxGeometry x="660" y="1390" width="60" height="30" as="geometry" />
        </mxCell>
        <mxCell id="iMO2lGKUr8zH2Anv26AK-134" value="" style="edgeStyle=orthogonalEdgeStyle;rounded=0;orthogonalLoop=1;jettySize=auto;html=1;" parent="1" source="iMO2lGKUr8zH2Anv26AK-135" target="iMO2lGKUr8zH2Anv26AK-137" edge="1">
          <mxGeometry relative="1" as="geometry" />
        </mxCell>
        <mxCell id="iMO2lGKUr8zH2Anv26AK-135" value="add" style="rounded=1;whiteSpace=wrap;html=1;" parent="1" vertex="1">
          <mxGeometry x="570" y="1710" width="80" height="40" as="geometry" />
        </mxCell>
        <mxCell id="iMO2lGKUr8zH2Anv26AK-136" value="" style="edgeStyle=orthogonalEdgeStyle;rounded=0;orthogonalLoop=1;jettySize=auto;html=1;" parent="1" source="iMO2lGKUr8zH2Anv26AK-137" target="iMO2lGKUr8zH2Anv26AK-139" edge="1">
          <mxGeometry relative="1" as="geometry" />
        </mxCell>
        <mxCell id="iMO2lGKUr8zH2Anv26AK-137" value="GN" style="rounded=1;whiteSpace=wrap;html=1;" parent="1" vertex="1">
          <mxGeometry x="570" y="1790" width="80" height="40" as="geometry" />
        </mxCell>
        <mxCell id="iMO2lGKUr8zH2Anv26AK-138" value="" style="edgeStyle=orthogonalEdgeStyle;rounded=0;orthogonalLoop=1;jettySize=auto;html=1;" parent="1" source="iMO2lGKUr8zH2Anv26AK-139" target="iMO2lGKUr8zH2Anv26AK-141" edge="1">
          <mxGeometry relative="1" as="geometry" />
        </mxCell>
        <mxCell id="iMO2lGKUr8zH2Anv26AK-139" value="Act" style="rounded=1;whiteSpace=wrap;html=1;" parent="1" vertex="1">
          <mxGeometry x="570" y="1870" width="80" height="40" as="geometry" />
        </mxCell>
        <mxCell id="iMO2lGKUr8zH2Anv26AK-140" value="" style="edgeStyle=orthogonalEdgeStyle;rounded=0;orthogonalLoop=1;jettySize=auto;html=1;" parent="1" source="iMO2lGKUr8zH2Anv26AK-141" target="iMO2lGKUr8zH2Anv26AK-143" edge="1">
          <mxGeometry relative="1" as="geometry" />
        </mxCell>
        <mxCell id="iMO2lGKUr8zH2Anv26AK-141" value="Dropout" style="rounded=1;whiteSpace=wrap;html=1;" parent="1" vertex="1">
          <mxGeometry x="570" y="1950" width="80" height="40" as="geometry" />
        </mxCell>
        <mxCell id="iMO2lGKUr8zH2Anv26AK-142" value="" style="edgeStyle=orthogonalEdgeStyle;rounded=0;orthogonalLoop=1;jettySize=auto;html=1;" parent="1" source="iMO2lGKUr8zH2Anv26AK-143" target="iMO2lGKUr8zH2Anv26AK-146" edge="1">
          <mxGeometry relative="1" as="geometry" />
        </mxCell>
        <mxCell id="iMO2lGKUr8zH2Anv26AK-143" value="conv" style="rounded=1;whiteSpace=wrap;html=1;" parent="1" vertex="1">
          <mxGeometry x="570" y="2030" width="80" height="40" as="geometry" />
        </mxCell>
        <mxCell id="iMO2lGKUr8zH2Anv26AK-144" style="edgeStyle=orthogonalEdgeStyle;rounded=0;orthogonalLoop=1;jettySize=auto;html=1;exitX=0.5;exitY=1;exitDx=0;exitDy=0;entryX=0;entryY=0.5;entryDx=0;entryDy=0;" parent="1" source="iMO2lGKUr8zH2Anv26AK-145" target="iMO2lGKUr8zH2Anv26AK-146" edge="1">
          <mxGeometry relative="1" as="geometry" />
        </mxCell>
        <mxCell id="iMO2lGKUr8zH2Anv26AK-145" value="match" style="rounded=1;whiteSpace=wrap;html=1;" parent="1" vertex="1">
          <mxGeometry x="410" y="2030" width="80" height="40" as="geometry" />
        </mxCell>
        <mxCell id="iMO2lGKUr8zH2Anv26AK-148" value="" style="edgeStyle=orthogonalEdgeStyle;rounded=0;orthogonalLoop=1;jettySize=auto;html=1;" parent="1" source="iMO2lGKUr8zH2Anv26AK-146" target="iMO2lGKUr8zH2Anv26AK-147" edge="1">
          <mxGeometry relative="1" as="geometry" />
        </mxCell>
        <mxCell id="iMO2lGKUr8zH2Anv26AK-146" value="add" style="rounded=1;whiteSpace=wrap;html=1;" parent="1" vertex="1">
          <mxGeometry x="570" y="2110" width="80" height="40" as="geometry" />
        </mxCell>
        <mxCell id="iMO2lGKUr8zH2Anv26AK-153" style="edgeStyle=orthogonalEdgeStyle;rounded=0;orthogonalLoop=1;jettySize=auto;html=1;exitX=0.5;exitY=1;exitDx=0;exitDy=0;entryX=0.5;entryY=0;entryDx=0;entryDy=0;" parent="1" source="iMO2lGKUr8zH2Anv26AK-147" edge="1">
          <mxGeometry relative="1" as="geometry">
            <mxPoint x="610" y="2280" as="targetPoint" />
          </mxGeometry>
        </mxCell>
        <mxCell id="iMO2lGKUr8zH2Anv26AK-147" value="Attention" style="rounded=1;whiteSpace=wrap;html=1;" parent="1" vertex="1">
          <mxGeometry x="570" y="2190" width="80" height="40" as="geometry" />
        </mxCell>
        <mxCell id="iMO2lGKUr8zH2Anv26AK-149" value="y" style="text;html=1;strokeColor=none;fillColor=none;align=center;verticalAlign=middle;whiteSpace=wrap;rounded=0;" parent="1" vertex="1">
          <mxGeometry x="170" y="2280" width="60" height="30" as="geometry" />
        </mxCell>
        <mxCell id="iMO2lGKUr8zH2Anv26AK-151" value="y" style="text;html=1;strokeColor=none;fillColor=none;align=center;verticalAlign=middle;whiteSpace=wrap;rounded=0;" parent="1" vertex="1">
          <mxGeometry x="580" y="2280" width="60" height="30" as="geometry" />
        </mxCell>
        <mxCell id="iMO2lGKUr8zH2Anv26AK-160" value="" style="edgeStyle=orthogonalEdgeStyle;rounded=0;orthogonalLoop=1;jettySize=auto;html=1;" parent="1" source="iMO2lGKUr8zH2Anv26AK-156" target="iMO2lGKUr8zH2Anv26AK-157" edge="1">
          <mxGeometry relative="1" as="geometry" />
        </mxCell>
        <mxCell id="iMO2lGKUr8zH2Anv26AK-156" value="GN" style="rounded=1;whiteSpace=wrap;html=1;" parent="1" vertex="1">
          <mxGeometry x="-290" y="1440" width="80" height="40" as="geometry" />
        </mxCell>
        <mxCell id="iMO2lGKUr8zH2Anv26AK-161" value="" style="edgeStyle=orthogonalEdgeStyle;rounded=0;orthogonalLoop=1;jettySize=auto;html=1;" parent="1" source="iMO2lGKUr8zH2Anv26AK-157" target="iMO2lGKUr8zH2Anv26AK-158" edge="1">
          <mxGeometry relative="1" as="geometry" />
        </mxCell>
        <mxCell id="iMO2lGKUr8zH2Anv26AK-157" value="Act" style="rounded=1;whiteSpace=wrap;html=1;" parent="1" vertex="1">
          <mxGeometry x="-290" y="1520" width="80" height="40" as="geometry" />
        </mxCell>
        <mxCell id="iMO2lGKUr8zH2Anv26AK-163" value="" style="edgeStyle=orthogonalEdgeStyle;rounded=0;orthogonalLoop=1;jettySize=auto;html=1;" parent="1" source="iMO2lGKUr8zH2Anv26AK-158" target="iMO2lGKUr8zH2Anv26AK-162" edge="1">
          <mxGeometry relative="1" as="geometry" />
        </mxCell>
        <mxCell id="iMO2lGKUr8zH2Anv26AK-158" value="conv" style="rounded=1;whiteSpace=wrap;html=1;" parent="1" vertex="1">
          <mxGeometry x="-290" y="1600" width="80" height="40" as="geometry" />
        </mxCell>
        <mxCell id="iMO2lGKUr8zH2Anv26AK-162" value="y" style="text;html=1;strokeColor=none;fillColor=none;align=center;verticalAlign=middle;whiteSpace=wrap;rounded=0;" parent="1" vertex="1">
          <mxGeometry x="-280" y="1680" width="60" height="30" as="geometry" />
        </mxCell>
        <mxCell id="iMO2lGKUr8zH2Anv26AK-165" value="" style="edgeStyle=orthogonalEdgeStyle;rounded=0;orthogonalLoop=1;jettySize=auto;html=1;" parent="1" source="iMO2lGKUr8zH2Anv26AK-164" target="iMO2lGKUr8zH2Anv26AK-156" edge="1">
          <mxGeometry relative="1" as="geometry" />
        </mxCell>
        <mxCell id="iMO2lGKUr8zH2Anv26AK-164" value="x" style="text;html=1;strokeColor=none;fillColor=none;align=center;verticalAlign=middle;whiteSpace=wrap;rounded=0;" parent="1" vertex="1">
          <mxGeometry x="-280" y="1360" width="60" height="30" as="geometry" />
        </mxCell>
        <mxCell id="vos_EPktBbN4nnMoWkFi-10" value="" style="edgeStyle=orthogonalEdgeStyle;rounded=0;orthogonalLoop=1;jettySize=auto;html=1;exitX=0.5;exitY=1;exitDx=0;exitDy=0;" parent="1" source="iMO2lGKUr8zH2Anv26AK-133" target="iMO2lGKUr8zH2Anv26AK-126" edge="1">
          <mxGeometry relative="1" as="geometry">
            <mxPoint x="689.9999999999995" y="1510" as="sourcePoint" />
          </mxGeometry>
        </mxCell>
        <mxCell id="vos_EPktBbN4nnMoWkFi-18" value="" style="edgeStyle=orthogonalEdgeStyle;rounded=0;orthogonalLoop=1;jettySize=auto;html=1;" parent="1" source="vos_EPktBbN4nnMoWkFi-13" target="vos_EPktBbN4nnMoWkFi-14" edge="1">
          <mxGeometry relative="1" as="geometry" />
        </mxCell>
        <mxCell id="vos_EPktBbN4nnMoWkFi-13" value="timestep" style="text;html=1;strokeColor=none;fillColor=none;align=center;verticalAlign=middle;whiteSpace=wrap;rounded=0;" parent="1" vertex="1">
          <mxGeometry x="950" y="1440" width="60" height="30" as="geometry" />
        </mxCell>
        <mxCell id="vos_EPktBbN4nnMoWkFi-19" value="" style="edgeStyle=orthogonalEdgeStyle;rounded=0;orthogonalLoop=1;jettySize=auto;html=1;" parent="1" source="vos_EPktBbN4nnMoWkFi-14" target="vos_EPktBbN4nnMoWkFi-15" edge="1">
          <mxGeometry relative="1" as="geometry" />
        </mxCell>
        <mxCell id="vos_EPktBbN4nnMoWkFi-14" value="&lt;font color=&quot;#000000&quot;&gt;position embedding&lt;/font&gt;" style="rounded=1;whiteSpace=wrap;html=1;fillColor=#1ba1e2;strokeColor=#006EAF;glass=0;shadow=1;sketch=1;curveFitting=1;jiggle=2;fontColor=#ffffff;" parent="1" vertex="1">
          <mxGeometry x="940" y="1530" width="80" height="40" as="geometry" />
        </mxCell>
        <mxCell id="vos_EPktBbN4nnMoWkFi-20" value="" style="edgeStyle=orthogonalEdgeStyle;rounded=0;orthogonalLoop=1;jettySize=auto;html=1;" parent="1" source="vos_EPktBbN4nnMoWkFi-15" target="vos_EPktBbN4nnMoWkFi-16" edge="1">
          <mxGeometry relative="1" as="geometry" />
        </mxCell>
        <mxCell id="vos_EPktBbN4nnMoWkFi-15" value="FC" style="rounded=1;whiteSpace=wrap;html=1;" parent="1" vertex="1">
          <mxGeometry x="940" y="1610" width="80" height="40" as="geometry" />
        </mxCell>
        <mxCell id="vos_EPktBbN4nnMoWkFi-21" value="" style="edgeStyle=orthogonalEdgeStyle;rounded=0;orthogonalLoop=1;jettySize=auto;html=1;" parent="1" source="vos_EPktBbN4nnMoWkFi-16" target="vos_EPktBbN4nnMoWkFi-17" edge="1">
          <mxGeometry relative="1" as="geometry" />
        </mxCell>
        <mxCell id="vos_EPktBbN4nnMoWkFi-16" value="Act" style="rounded=1;whiteSpace=wrap;html=1;" parent="1" vertex="1">
          <mxGeometry x="940" y="1690" width="80" height="40" as="geometry" />
        </mxCell>
        <mxCell id="vos_EPktBbN4nnMoWkFi-17" value="FC" style="rounded=1;whiteSpace=wrap;html=1;" parent="1" vertex="1">
          <mxGeometry x="940" y="1770" width="80" height="40" as="geometry" />
        </mxCell>
        <mxCell id="vos_EPktBbN4nnMoWkFi-22" value="&lt;b style=&quot;font-size: 15px;&quot;&gt;timestep embedding&lt;/b&gt;" style="text;html=1;strokeColor=none;fillColor=none;align=center;verticalAlign=middle;whiteSpace=wrap;rounded=0;" parent="1" vertex="1">
          <mxGeometry x="890" y="1340" width="180" height="30" as="geometry" />
        </mxCell>
        <mxCell id="vos_EPktBbN4nnMoWkFi-24" value="&lt;b style=&quot;font-size: 15px;&quot;&gt;ResNetBlock&lt;/b&gt;" style="text;html=1;strokeColor=none;fillColor=none;align=center;verticalAlign=middle;whiteSpace=wrap;rounded=0;" parent="1" vertex="1">
          <mxGeometry x="70" y="1340" width="180" height="30" as="geometry" />
        </mxCell>
        <mxCell id="vos_EPktBbN4nnMoWkFi-25" value="&lt;b style=&quot;font-size: 15px;&quot;&gt;ResNetBlock with Attention&lt;/b&gt;" style="text;html=1;strokeColor=none;fillColor=none;align=center;verticalAlign=middle;whiteSpace=wrap;rounded=0;" parent="1" vertex="1">
          <mxGeometry x="465" y="1340" width="210" height="30" as="geometry" />
        </mxCell>
        <mxCell id="vos_EPktBbN4nnMoWkFi-26" value="&lt;b style=&quot;font-size: 15px;&quot;&gt;Final&lt;/b&gt;" style="text;html=1;strokeColor=none;fillColor=none;align=center;verticalAlign=middle;whiteSpace=wrap;rounded=0;" parent="1" vertex="1">
          <mxGeometry x="-340" y="1340" width="180" height="30" as="geometry" />
        </mxCell>
      </root>
    </mxGraphModel>
  </diagram>
</mxfile>
